<svg width="48" height="48" viewBox="0 0 48 48" fill="none" xmlns="http://www.w3.org/2000/svg">
<path d="M7.10767 40.2987C6.18767 40.2987 5.39001 39.9526 4.71467 39.2602C4.03901 38.5682 3.70117 37.7789 3.70117 36.8922V11.1072C3.70117 10.2172 4.03901 9.42505 4.71467 8.73072C5.39001 8.03605 6.18767 7.68872 7.10767 7.68872H40.8927C41.7827 7.68872 42.5748 8.03605 43.2692 8.73072C43.9638 9.42505 44.3112 10.2172 44.3112 11.1072V22.6227C44.3112 23.1034 44.1443 23.5074 43.8107 23.8347C43.4767 24.1621 43.0685 24.3257 42.5862 24.3257C42.1035 24.3257 41.7005 24.1621 41.3772 23.8347C41.0542 23.5074 40.8927 23.1034 40.8927 22.6227V14.3822L24.9207 24.6482C24.7627 24.7312 24.6155 24.7914 24.4792 24.8287C24.3425 24.8661 24.1828 24.8847 24.0002 24.8847C23.8175 24.8847 23.6578 24.8661 23.5212 24.8287C23.3848 24.7914 23.2377 24.7312 23.0797 24.6482L7.10767 14.3822V36.8922H24.5967C25.0777 36.8922 25.4818 37.0567 25.8092 37.3857C26.1365 37.7147 26.3002 38.1209 26.3002 38.6042C26.3002 39.0875 26.1365 39.4907 25.8092 39.8137C25.4818 40.1371 25.0777 40.2987 24.5967 40.2987H7.10767ZM24.0002 21.7572L40.8927 11.1072H7.10767L24.0002 21.7572ZM7.10767 36.8922V24.2997V24.5257V14.3822V14.7682V12.3992V12.4422V11.1072V12.4437V12.4127V14.7682V14.3822V36.8922ZM38.6502 45.9997C36.0635 45.9997 33.8585 45.0997 32.0352 43.2997C30.2118 41.4997 29.3002 39.2996 29.3002 36.6992C29.3002 34.0986 30.2118 31.8819 32.0352 30.0492C33.8585 28.2162 36.0635 27.2997 38.6502 27.2997C41.2368 27.2997 43.4418 28.2162 45.2652 30.0492C47.0885 31.8819 48.0002 34.0986 48.0002 36.6992C48.0002 39.2996 47.0885 41.4997 45.2652 43.2997C43.4418 45.0997 41.2368 45.9997 38.6502 45.9997ZM34.0737 37.5712H43.2267C43.5183 37.5712 43.7702 37.4657 43.9822 37.2547C44.1942 37.0437 44.3002 36.7921 44.3002 36.4997C44.3002 36.2091 44.1942 35.9577 43.9822 35.7457C43.7702 35.534 43.5183 35.4282 43.2267 35.4282H34.0737C33.782 35.4282 33.5302 35.5337 33.3182 35.7447C33.1062 35.9557 33.0002 36.2074 33.0002 36.4997C33.0002 36.7904 33.1062 37.0417 33.3182 37.2537C33.5302 37.4654 33.782 37.5712 34.0737 37.5712Z" fill="#05030D"/>
</svg>
