<svg width="40" height="40" viewBox="0 0 40 40" fill="none" xmlns="http://www.w3.org/2000/svg">
<path d="M7 36.6668C5.89543 36.6668 5 35.7714 5 34.6668V15.3335C5 14.2289 5.89543 13.3335 7 13.3335H9.66667C10.7712 13.3335 11.6667 14.2289 11.6667 15.3335V34.6668C11.6667 35.7714 10.7712 36.6668 9.66667 36.6668H7ZM18.6667 36.6668C17.5621 36.6668 16.6667 35.7714 16.6667 34.6668V5.33349C16.6667 4.22892 17.5621 3.3335 18.6667 3.3335H21.3333C22.4379 3.3335 23.3333 4.22893 23.3333 5.3335V34.6668C23.3333 35.7714 22.4379 36.6668 21.3333 36.6668H18.6667ZM30.3333 36.6668C29.2288 36.6668 28.3333 35.7714 28.3333 34.6668V25.3335C28.3333 24.2289 29.2288 23.3335 30.3333 23.3335H33C34.1046 23.3335 35 24.2289 35 25.3335V34.6668C35 35.7714 34.1046 36.6668 33 36.6668H30.3333Z" fill="#FF6138"/>
</svg>
