<svg width="74" height="74" viewBox="0 0 74 74" fill="none" xmlns="http://www.w3.org/2000/svg">
<rect x="0.8" y="0.8" width="72.4" height="72.4" rx="18.2" stroke="black" stroke-opacity="0.06" stroke-width="1.6"/>
<path d="M23.25 54.5C22.1454 54.5 21.25 53.6046 21.25 52.5V32C21.25 30.8954 22.1454 30 23.25 30H26.25C27.3546 30 28.25 30.8954 28.25 32V52.5C28.25 53.6046 27.3546 54.5 26.25 54.5H23.25ZM35.5 54.5C34.3954 54.5 33.5 53.6046 33.5 52.5V21.5C33.5 20.3954 34.3954 19.5 35.5 19.5H38.5C39.6046 19.5 40.5 20.3954 40.5 21.5V52.5C40.5 53.6046 39.6046 54.5 38.5 54.5H35.5ZM47.75 54.5C46.6454 54.5 45.75 53.6046 45.75 52.5V42.5C45.75 41.3954 46.6454 40.5 47.75 40.5H50.75C51.8546 40.5 52.75 41.3954 52.75 42.5V52.5C52.75 53.6046 51.8546 54.5 50.75 54.5H47.75Z" fill="#6138FF"/>
</svg>
