<svg width="106" height="106" viewBox="0 0 106 106" fill="none" xmlns="http://www.w3.org/2000/svg">
<rect width="106" height="106" rx="23.5556" fill="#6138FF"/>
<path d="M36.466 61.1665C36.466 59.9469 37.453 58.9578 38.6706 58.9578H39.9933C41.2109 58.9578 42.1979 59.9469 42.1979 61.1665C42.1979 62.3862 41.2109 63.3752 39.9933 63.3752H38.6706C37.453 63.3752 36.466 62.3862 36.466 61.1665ZM67.3301 58.9578H66.0073C64.7897 58.9578 63.8028 59.9469 63.8028 61.1665C63.8028 62.3862 64.7897 63.3752 66.0073 63.3752H67.3301C68.5477 63.3752 69.5347 62.3862 69.5347 61.1665C69.5347 59.9469 68.5477 58.9578 67.3301 58.9578ZM8.83398 68.6873C8.83398 57.0595 13.3152 47.1241 19.3575 39.9753C16.9647 36.3184 15.3789 32.1526 14.7434 27.822C14.2231 24.2764 15.7835 20.9031 18.8157 19.0177C21.8525 17.1295 25.569 17.2265 28.5147 19.2711C31.6977 21.4804 34.4618 24.327 36.5947 27.5782C46.8454 23.4168 59.0788 23.4183 69.4035 27.5828C71.5369 24.3296 74.3021 21.4813 77.4864 19.2711C80.4319 17.2267 84.1486 17.1295 87.1856 19.018C90.2176 20.9031 91.778 24.2768 91.2577 27.8218C90.6224 32.1523 89.0364 36.3182 86.6438 39.9751C92.6859 47.1239 97.1673 57.059 97.1673 68.6871C97.1673 71.0913 94.0381 75.9645 88.4445 75.9645H74.4564C72.3742 75.9645 70.2915 76.8349 68.8751 78.2955L63.7942 84.1154C61.5409 86.7071 58.3134 88.2353 54.8947 88.3334H51.1068C47.6882 88.2355 44.4607 86.7073 42.2074 84.1154L37.1265 78.2955C35.71 76.8352 33.6274 75.9645 31.5451 75.9645H17.5568C11.9632 75.9647 8.83398 71.0915 8.83398 68.6873ZM56.7481 81.7073C56.7481 80.0022 55.3636 78.6151 53.6617 78.6151H52.3389C50.637 78.6151 49.2525 80.0022 49.2525 81.7073C49.2525 82.9252 50.2415 83.916 51.4571 83.916H54.5435C55.7591 83.916 56.7481 82.9252 56.7481 81.7073ZM64.7624 76.2962C63.8107 73.8344 62.0711 71.7596 59.7763 70.3774C55.7219 67.9339 50.2722 67.9353 46.2243 70.3774C43.9296 71.7596 42.1902 73.8342 41.2382 76.2962L44.9357 80.5316C45.5008 76.9474 48.6051 74.1978 52.3387 74.1978H53.6615C57.3954 74.1978 60.4996 76.9474 61.0645 80.5316L64.7624 76.2962ZM92.5375 68.946C86.9061 60.0348 77.0029 54.5405 66.4502 54.5405C64.264 54.5405 62.2567 53.7588 60.6917 52.4599L59.3202 60.7118C58.9315 63.051 60.0025 65.3588 62.049 66.5919C64.7287 68.2065 66.8565 70.5139 68.2326 73.2529C70.1046 72.1598 72.2829 71.5471 74.4557 71.5471H88.4438C90.2213 71.5473 91.8027 70.5115 92.5375 68.946ZM64.1769 44.0879C63.1116 43.9355 62.096 44.6325 61.8299 45.6682C61.9271 48.1404 63.9591 50.1231 66.4502 50.1231C76.1879 50.1231 85.4389 54.2191 92.0291 61.1553C91.4292 58.0699 90.4683 55.0734 89.177 52.2293C81.3671 48.1028 72.9615 45.3618 64.1769 44.0879ZM22.4821 36.6492C23.882 35.3112 25.3322 34.1119 26.8031 33.0621C27.7947 32.3544 29.1631 32.5464 29.886 33.5279C30.6088 34.5095 30.4007 35.8923 29.421 36.6165C26.0403 39.1159 23.1175 42.1182 20.7191 45.4749C27.2427 42.6765 34.1009 40.7441 41.1922 39.7158C44.6756 39.2109 47.9801 41.6358 48.5592 45.1217L51.0296 59.986C51.2708 61.4371 51.1943 62.8805 50.8396 64.2373C52.2737 64.0632 53.7265 64.0634 55.1608 64.2379C54.8059 62.8811 54.7294 61.4375 54.9706 59.9862L57.441 45.122C58.0204 41.6362 61.3255 39.2091 64.8081 39.716C71.8995 40.7444 78.7577 42.6767 85.2813 45.4751C82.883 42.1184 79.9601 39.1159 76.5794 36.6168C75.5997 35.8925 75.3916 34.5097 76.1145 33.5281C76.8373 32.5466 78.2057 32.3547 79.1973 33.0623C80.6682 34.1121 82.1184 35.3114 83.5183 36.6492C85.2469 33.7523 86.4041 30.5241 86.8949 27.1795C87.1594 25.3759 86.3988 23.728 84.86 22.7712C83.3162 21.8113 81.498 21.8601 79.9967 22.9022C76.812 25.1128 74.1178 28.0709 72.2051 31.4568C71.6403 32.4567 70.4055 32.8563 69.3638 32.375C59.2258 27.6954 46.6882 27.6943 36.643 32.3719C35.6007 32.8571 34.3613 32.4589 33.7951 31.4566C31.8826 28.0707 29.1882 25.1124 26.0035 22.9019C24.5022 21.8601 22.6843 21.8111 21.1404 22.771C19.6016 23.7278 18.8408 25.3757 19.1056 27.1793C19.5965 30.5241 20.7537 33.7525 22.4821 36.6492ZM13.9715 61.1553C20.5619 54.2191 29.8128 50.1231 39.5504 50.1231C42.0416 50.1231 44.0738 48.1401 44.1708 45.668C43.9051 44.6323 42.8919 43.9355 41.8238 44.0879C33.0392 45.3621 24.6335 48.1028 16.8236 52.2293C15.5324 55.0734 14.5716 58.0699 13.9715 61.1553ZM13.4634 68.946C14.1982 70.5115 15.7795 71.5473 17.5568 71.5473H31.5449C33.7177 71.5473 35.8961 72.1598 37.768 73.2531C39.1443 70.5137 41.272 68.2063 43.9525 66.5917C45.9986 65.3593 47.0693 63.0512 46.6807 60.712L45.3092 52.4601C43.7444 53.759 41.7369 54.5407 39.5506 54.5407C28.998 54.5405 19.0948 60.0348 13.4634 68.946Z" fill="white"/>
</svg>
