<svg width="30" height="30" viewBox="0 0 30 30" fill="none" xmlns="http://www.w3.org/2000/svg">
<g clip-path="url(#clip0_270_3234)">
<path fill-rule="evenodd" clip-rule="evenodd" d="M2.67662 15.0021C2.67662 11.7337 3.97499 8.59918 6.28611 6.28806C8.59723 3.97694 11.7318 2.67857 15.0002 2.67857C18.2686 2.67857 21.4032 3.97694 23.7143 6.28806C26.0254 8.59918 27.3238 11.7337 27.3238 15.0021C27.3238 18.2706 26.0254 21.4051 23.7143 23.7162C21.4032 26.0273 18.2686 27.3257 15.0002 27.3257C11.7318 27.3257 8.59723 26.0273 6.28611 23.7162C3.97499 21.4051 2.67662 18.2706 2.67662 15.0021ZM15.0002 0C13.0301 -2.93569e-08 11.0793 0.388042 9.25912 1.14197C7.43897 1.8959 5.78515 3.00095 4.39207 4.39403C2.999 5.7871 1.89395 7.44093 1.14002 9.26107C0.386089 11.0812 -0.00195312 13.032 -0.00195312 15.0021C-0.00195312 16.9723 0.386089 18.9231 1.14002 20.7432C1.89395 22.5634 2.999 24.2172 4.39207 25.6103C5.78515 27.0033 7.43897 28.1084 9.25912 28.8623C11.0793 29.6162 13.0301 30.0043 15.0002 30.0043C18.979 30.0043 22.7949 28.4237 25.6083 25.6103C28.4218 22.7968 30.0023 18.981 30.0023 15.0021C30.0023 11.0233 28.4218 7.20747 25.6083 4.39403C22.7949 1.58058 18.979 5.9289e-08 15.0002 0ZM16.3395 6.42857C16.3395 6.07337 16.1984 5.73272 15.9472 5.48155C15.696 5.23039 15.3554 5.08929 15.0002 5.08929C14.645 5.08929 14.3043 5.23039 14.0532 5.48155C13.802 5.73272 13.6609 6.07337 13.6609 6.42857V7.94786C12.7085 7.96702 11.7962 8.33509 11.0971 8.98224C10.398 9.62939 9.96072 10.5106 9.86824 11.4588C9.77575 12.4069 10.0345 13.356 10.5953 14.1261C11.1561 14.8961 11.9801 15.4336 12.9109 15.6364L16.2752 16.3736C16.6375 16.4567 16.9569 16.6698 17.1726 16.9725C17.3884 17.2753 17.4857 17.6466 17.4461 18.0162C17.4065 18.3859 17.2328 18.7282 16.9577 18.9783C16.6827 19.2285 16.3255 19.3691 15.9538 19.3736H14.0488C13.7349 19.3738 13.4286 19.2769 13.172 19.0962C12.9153 18.9155 12.7208 18.6598 12.6152 18.3643C12.5611 18.193 12.4731 18.0343 12.3564 17.8977C12.2397 17.7611 12.0967 17.6494 11.9359 17.5692C11.7751 17.489 11.5999 17.4419 11.4206 17.4309C11.2412 17.4198 11.0615 17.4449 10.8921 17.5048C10.7227 17.5646 10.5671 17.6579 10.4345 17.7791C10.3019 17.9003 10.195 18.047 10.1202 18.2104C10.0455 18.3737 10.0044 18.5505 9.99932 18.73C9.99428 18.9096 10.0254 19.0884 10.0909 19.2557C10.3587 20.0114 10.8371 20.6746 11.4697 21.1671C12.1023 21.6596 12.8626 21.9608 13.6609 22.035V23.5714C13.6609 23.9266 13.802 24.2673 14.0532 24.5184C14.3043 24.7696 14.645 24.9107 15.0002 24.9107C15.3554 24.9107 15.696 24.7696 15.9472 24.5184C16.1984 24.2673 16.3395 23.9266 16.3395 23.5714V22.0371C17.3357 21.9426 18.2655 21.4954 18.9613 20.7762C19.6571 20.0569 20.0732 19.1129 20.1347 18.1141C20.1962 17.1152 19.899 16.1273 19.2967 15.3281C18.6945 14.5289 17.8266 13.9711 16.8495 13.755L13.483 13.02C13.1891 12.9585 12.9285 12.7899 12.7519 12.547C12.5753 12.3042 12.4952 12.0043 12.5273 11.7058C12.5593 11.4072 12.7012 11.1312 12.9253 10.9313C13.1495 10.7314 13.4399 10.622 13.7402 10.6243H15.9516C16.2664 10.6228 16.5737 10.7197 16.8308 10.9014C17.0878 11.0832 17.2816 11.3406 17.3852 11.6379C17.4407 11.8076 17.5296 11.9646 17.6466 12.0995C17.7637 12.2344 17.9066 12.3446 18.0668 12.4235C18.2271 12.5023 18.4015 12.5484 18.5798 12.5588C18.7581 12.5693 18.9368 12.5439 19.1051 12.4843C19.2735 12.4247 19.4283 12.332 19.5603 12.2117C19.6923 12.0914 19.799 11.9459 19.8739 11.7838C19.9489 11.6216 19.9906 11.4461 19.9967 11.2676C20.0028 11.0891 19.9732 10.9112 19.9095 10.7443C19.6417 9.98861 19.1633 9.32535 18.5307 8.83286C17.8981 8.34037 17.1377 8.03922 16.3395 7.965V6.42857Z" fill="white"/>
</g>
<defs>
<clipPath id="clip0_270_3234">
<rect width="30" height="30" fill="white"/>
</clipPath>
</defs>
</svg>
