<svg width="32" height="32" viewBox="0 0 32 32" fill="none" xmlns="http://www.w3.org/2000/svg">
<path fill-rule="evenodd" clip-rule="evenodd" d="M9.33292 6.00008C9.33292 5.11603 9.68411 4.26818 10.3092 3.64306C10.9344 3.01794 11.7822 2.66675 12.6663 2.66675C13.5503 2.66675 14.3982 3.01794 15.0233 3.64306C15.6484 4.26818 15.9996 5.11603 15.9996 6.00008V12.1401L23.2556 12.9467C24.5599 13.0918 25.7649 13.7126 26.6402 14.6904C27.5154 15.6682 27.9994 16.9344 27.9996 18.2467V18.6667C27.9996 21.4957 26.8758 24.2088 24.8754 26.2092C22.875 28.2096 20.1619 29.3334 17.3329 29.3334H16.4343C14.4535 29.3333 12.5118 28.7817 10.8268 27.7404C9.14188 26.699 7.78016 25.2091 6.89425 23.4374L3.10492 15.8587C2.62492 14.8987 2.98092 13.6147 4.10092 13.1547C5.49159 12.5854 6.81292 12.4787 8.17425 13.1707C8.56803 13.3725 8.95425 13.6321 9.33292 13.9494V6.00008ZM12.6663 5.33341C12.4894 5.33341 12.3199 5.40365 12.1948 5.52868C12.0698 5.6537 11.9996 5.82327 11.9996 6.00008V17.3334C11.9994 17.6095 11.9135 17.8786 11.7538 18.1038C11.5941 18.3289 11.3684 18.499 11.108 18.5904C10.8475 18.6819 10.5651 18.6902 10.2997 18.6143C10.0343 18.5384 9.79899 18.3821 9.62625 18.1667C8.39292 16.6254 7.60359 15.8734 6.96625 15.5481C6.62623 15.3631 6.23068 15.3077 5.85292 15.3921L9.27959 22.2454C9.94408 23.574 10.9654 24.6913 12.229 25.4722C13.4927 26.2531 14.9488 26.6667 16.4343 26.6667H17.3329C19.4547 26.6667 21.4895 25.8239 22.9898 24.3236C24.4901 22.8233 25.3329 20.7885 25.3329 18.6667V18.2467C25.333 17.5903 25.0908 16.9568 24.6529 16.4677C24.215 15.9787 23.6121 15.6683 22.9596 15.5961L15.7063 14.7907C15.0538 14.7185 14.4508 14.4082 14.0129 13.9191C13.575 13.43 13.3329 12.7966 13.3329 12.1401V6.00008C13.3329 5.82327 13.2627 5.6537 13.1377 5.52868C13.0126 5.40365 12.8431 5.33341 12.6663 5.33341Z" fill="white"/>
</svg>
