<svg width="32" height="24" viewBox="0 0 32 24" fill="none" xmlns="http://www.w3.org/2000/svg">
<path fill-rule="evenodd" clip-rule="evenodd" d="M23.4883 0C24.631 0 25.5761 0.651 26.268 1.335C26.9885 2.0445 27.6489 2.9985 28.236 4.05C29.4147 6.159 30.4407 8.9145 31.1191 11.637C31.7931 14.3385 32.1661 17.16 31.9279 19.3785C31.6883 21.606 30.5425 24 27.9814 24C25.7708 24 24.0095 22.86 22.5687 21.7035L22.043 21.27L21.3061 20.6475L20.6411 20.0955C19.115 18.858 17.7595 18 15.9997 18C14.2399 18 12.8845 18.858 11.3583 20.0955L10.6933 20.6475L9.95643 21.27L9.43223 21.7035C7.98843 22.86 6.22711 24 4.01798 24C1.45539 24 0.309639 21.606 0.0715026 19.3785C-0.165137 17.1585 0.206297 14.3385 0.880269 11.637C1.55873 8.9145 2.58467 6.159 3.76337 4.0485C4.35048 2.9985 5.01097 2.0445 5.73137 1.3335C6.42332 0.651 7.36837 0 8.51113 0C9.28245 0 10.0358 0.1845 10.7772 0.405L11.6638 0.6765C11.8116 0.7225 11.9589 0.766 12.1056 0.807C13.4012 1.179 14.7267 1.5 15.9997 1.5C17.2728 1.5 18.5982 1.179 19.8938 0.807L21.2192 0.4065C21.9651 0.186 22.7245 0 23.4883 0ZM23.4883 3C22.9147 3 22.3156 3.174 21.7345 3.3645L21.0485 3.591L20.7175 3.693C19.392 4.071 17.7221 4.5 15.9997 4.5C14.2773 4.5 12.6074 4.071 11.2819 3.693L10.9524 3.591L10.265 3.3645C9.68384 3.1725 9.08475 3 8.51113 3C7.88509 3.117 7.32344 3.8775 6.89959 4.5825L6.66295 4.995L6.37838 5.514C5.35694 7.341 4.41638 9.834 3.78734 12.3645C3.19574 14.7285 2.90818 16.9935 3.01751 18.6795L3.05645 19.119L3.0864 19.383L3.13134 19.695C3.23468 20.2965 3.45784 21 4.01798 21C5.23413 21 6.24958 20.394 7.51215 19.389L8.11573 18.897L9.254 17.943L9.76921 17.523C11.3628 16.2585 13.3562 15 15.9997 15C18.6432 15 20.6366 16.26 22.2302 17.523L22.7469 17.943L23.8852 18.897L24.4873 19.389C25.7498 20.394 26.7638 21 27.9814 21C28.4907 21 28.7213 20.4195 28.8366 19.8615L28.8935 19.5345L28.949 19.059C29.1332 17.34 28.8486 14.9115 28.2136 12.3645C27.6355 10.0455 26.7967 7.7565 25.8741 5.9835L25.3365 4.9935L25.0998 4.584C24.676 3.8775 24.1143 3.117 23.4883 3ZM10.7577 6C11.7508 6 12.7031 6.39509 13.4053 7.09835C14.1075 7.80161 14.502 8.75544 14.502 9.75C14.502 10.7446 14.1075 11.6984 13.4053 12.4017C12.7031 13.1049 11.7508 13.5 10.7577 13.5C9.76466 13.5 8.81228 13.1049 8.11009 12.4017C7.4079 11.6984 7.01341 10.7446 7.01341 9.75C7.01341 8.75544 7.4079 7.80161 8.11009 7.09835C8.81228 6.39509 9.76466 6 10.7577 6ZM21.2417 6C21.6086 6.00005 21.9626 6.13493 22.2368 6.37907C22.5109 6.62321 22.686 6.95962 22.7289 7.3245L22.7394 7.5V8.25H23.4883C23.87 8.25042 24.2372 8.39682 24.5148 8.65927C24.7924 8.92173 24.9594 9.28043 24.9818 9.66209C25.0041 10.0438 24.8802 10.4196 24.6351 10.7127C24.3901 11.0059 24.0426 11.1943 23.6635 11.2395L23.4883 11.25H22.7394V12C22.739 12.3823 22.5928 12.75 22.3308 13.0281C22.0687 13.3061 21.7106 13.4734 21.3295 13.4958C20.9484 13.5182 20.5732 13.394 20.2804 13.1486C19.9877 12.9032 19.7996 12.5551 19.7545 12.1755L19.744 12V11.25H18.9951C18.6134 11.2496 18.2462 11.1032 17.9687 10.8407C17.6911 10.5783 17.524 10.2196 17.5017 9.83791C17.4793 9.45625 17.6033 9.08043 17.8483 8.78725C18.0933 8.49407 18.4408 8.30566 18.8199 8.2605L18.9951 8.25H19.744V7.5C19.744 7.10218 19.9018 6.72064 20.1827 6.43934C20.4635 6.15804 20.8445 6 21.2417 6ZM10.7577 9C10.5591 9 10.3686 9.07902 10.2282 9.21967C10.0877 9.36032 10.0088 9.55109 10.0088 9.75C10.0088 9.94891 10.0877 10.1397 10.2282 10.2803C10.3686 10.421 10.5591 10.5 10.7577 10.5C10.9563 10.5 11.1468 10.421 11.2872 10.2803C11.4277 10.1397 11.5066 9.94891 11.5066 9.75C11.5066 9.55109 11.4277 9.36032 11.2872 9.21967C11.1468 9.07902 10.9563 9 10.7577 9Z" fill="white"/>
</svg>
