<svg width="48" height="48" viewBox="0 0 48 48" fill="none" xmlns="http://www.w3.org/2000/svg">
<rect y="0.00439453" width="48" height="48" rx="24" fill="#FF6669"/>
<path d="M33.41 23.5844L24.41 14.5844C24.05 14.2244 23.55 14.0044 23 14.0044H16C14.9 14.0044 14 14.9044 14 16.0044V23.0044C14 23.5544 14.22 24.0544 14.59 24.4244L23.59 33.4244C23.95 33.7844 24.45 34.0044 25 34.0044C25.55 34.0044 26.05 33.7844 26.41 33.4144L33.41 26.4144C33.78 26.0544 34 25.5544 34 25.0044C34 24.4544 33.77 23.9444 33.41 23.5844ZM17.5 19.0044C16.67 19.0044 16 18.3344 16 17.5044C16 16.6744 16.67 16.0044 17.5 16.0044C18.33 16.0044 19 16.6744 19 17.5044C19 18.3344 18.33 19.0044 17.5 19.0044Z" fill="white"/>
</svg>
