<svg width="32" height="32" viewBox="0 0 32 32" fill="none" xmlns="http://www.w3.org/2000/svg">
<path fill-rule="evenodd" clip-rule="evenodd" d="M26.6663 22.6667H5.33301C4.59663 22.6667 3.99967 23.2636 3.99967 24C3.99967 24.7364 4.59663 25.3333 5.33301 25.3333H26.6663C27.4027 25.3333 27.9997 24.7364 27.9997 24C27.9997 23.2636 27.4027 22.6667 26.6663 22.6667ZM5.33301 20C3.12387 20 1.33301 21.7909 1.33301 24C1.33301 26.2091 3.12387 28 5.33301 28H26.6663C28.8755 28 30.6663 26.2091 30.6663 24C30.6663 21.7909 28.8755 20 26.6663 20H5.33301Z" fill="white"/>
<path d="M17.3337 5.33333C17.3337 4.59695 16.7367 4 16.0003 4C15.2639 4 14.667 4.59695 14.667 5.33333V12.781L12.9431 11.0572C12.4224 10.5365 11.5782 10.5365 11.0575 11.0572C10.5368 11.5779 10.5368 12.4221 11.0575 12.9428L15.0575 16.9428C15.5782 17.4635 16.4224 17.4635 16.9431 16.9428L20.9431 12.9428C21.4638 12.4221 21.4638 11.5779 20.9431 11.0572C20.4224 10.5365 19.5782 10.5365 19.0575 11.0572L17.3337 12.781V5.33333Z" fill="white"/>
</svg>
