<svg width="36" height="36" viewBox="0 0 36 36" fill="none" xmlns="http://www.w3.org/2000/svg">
<rect width="36" height="36" rx="8" fill="#6138FF"/>
<path d="M12.3844 20.7735C12.3844 20.3593 12.7197 20.0234 13.1332 20.0234H13.5824C13.9959 20.0234 14.3311 20.3593 14.3311 20.7735C14.3311 21.1877 13.9959 21.5236 13.5824 21.5236H13.1332C12.7197 21.5236 12.3844 21.1877 12.3844 20.7735ZM22.8666 20.0234H22.4174C22.0038 20.0234 21.6686 20.3593 21.6686 20.7735C21.6686 21.1877 22.0038 21.5236 22.4174 21.5236H22.8666C23.2801 21.5236 23.6153 21.1877 23.6153 20.7735C23.6153 20.3593 23.2801 20.0234 22.8666 20.0234ZM3 23.3278C3 19.3787 4.52193 16.0044 6.57404 13.5765C5.76137 12.3345 5.22282 10.9197 5.00696 9.44897C4.83026 8.24481 5.36021 7.09915 6.39 6.45885C7.42137 5.81757 8.68357 5.8505 9.68402 6.54489C10.765 7.29523 11.7038 8.26199 12.4282 9.36616C15.9095 7.95286 20.0643 7.95339 23.5708 9.36774C24.2953 8.26289 25.2344 7.29553 26.3159 6.54489C27.3163 5.85058 28.5786 5.81757 29.61 6.45892C30.6397 7.09915 31.1697 8.24496 30.993 9.4489C30.7772 10.9197 30.2386 12.3345 29.426 13.5764C31.478 16.0043 33 19.3785 33 23.3277C33 24.1442 31.9373 25.7993 30.0375 25.7993H25.2869C24.5797 25.7993 23.8724 26.0949 23.3913 26.5909L21.6657 28.5675C20.9005 29.4477 19.8043 29.9667 18.6433 30H17.3568C16.1958 29.9668 15.0996 29.4478 14.3344 28.5675L12.6088 26.5909C12.1277 26.095 11.4204 25.7993 10.7132 25.7993H5.96248C4.06274 25.7993 3 24.1443 3 23.3278ZM19.2727 27.7496C19.2727 27.1705 18.8025 26.6995 18.2245 26.6995H17.7753C17.1973 26.6995 16.7271 27.1705 16.7271 27.7496C16.7271 28.1633 17.0629 28.4998 17.4758 28.4998H18.524C18.9368 28.4998 19.2727 28.1633 19.2727 27.7496ZM21.9946 25.9119C21.6713 25.0758 21.0805 24.3712 20.3012 23.9018C18.9242 23.0719 17.0733 23.0723 15.6986 23.9018C14.9193 24.3712 14.3285 25.0758 14.0052 25.9119L15.261 27.3504C15.4529 26.1331 16.5072 25.1992 17.7752 25.1992H18.2244C19.4925 25.1992 20.5468 26.1331 20.7386 27.3504L21.9946 25.9119ZM31.4276 23.4156C29.5151 20.3892 26.1517 18.5232 22.5678 18.5232C21.8253 18.5232 21.1436 18.2577 20.612 17.8166L20.1463 20.6191C20.0143 21.4135 20.378 22.1973 21.073 22.6161C21.9831 23.1645 22.7058 23.9481 23.1731 24.8783C23.8089 24.5071 24.5487 24.299 25.2866 24.299H30.0373C30.641 24.2991 31.1781 23.9473 31.4276 23.4156ZM21.7957 14.9732C21.4339 14.9215 21.089 15.1582 20.9986 15.5099C21.0316 16.3495 21.7217 17.0229 22.5678 17.0229C25.8749 17.0229 29.0168 18.414 31.2549 20.7697C31.0512 19.7219 30.7248 18.7042 30.2863 17.7382C27.6339 16.3368 24.7791 15.4059 21.7957 14.9732ZM7.63521 12.4469C8.11065 11.9925 8.60316 11.5852 9.10271 11.2286C9.43949 10.9883 9.90422 11.0535 10.1497 11.3868C10.3952 11.7202 10.3246 12.1898 9.99182 12.4358C8.84365 13.2846 7.85099 14.3043 7.03645 15.4443C9.25201 14.4939 11.5812 13.8376 13.9896 13.4884C15.1726 13.3169 16.2949 14.1404 16.4916 15.3244L17.3306 20.3726C17.4125 20.8654 17.3865 21.3556 17.2661 21.8164C17.7531 21.7573 18.2465 21.7574 18.7336 21.8166C18.6131 21.3558 18.5871 20.8656 18.669 20.3727L19.508 15.3244C19.7048 14.1406 20.8273 13.3163 22.0101 13.4884C24.4185 13.8377 26.7477 14.494 28.9632 15.4444C28.1487 14.3043 27.156 13.2846 26.0079 12.4359C25.6751 12.1899 25.6045 11.7203 25.85 11.3869C26.0955 11.0536 26.5602 10.9884 26.897 11.2287C27.3965 11.5852 27.8891 11.9926 28.3645 12.4469C28.9516 11.463 29.3446 10.3667 29.5112 9.23076C29.6011 8.61822 29.3428 8.05855 28.8202 7.7336C28.2958 7.4076 27.6784 7.42418 27.1685 7.77808C26.0869 8.52888 25.1719 9.53351 24.5223 10.6834C24.3304 11.023 23.9111 11.1587 23.5573 10.9953C20.1142 9.40599 15.8561 9.40562 12.4446 10.9942C12.0906 11.159 11.6696 11.0238 11.4774 10.6834C10.8278 9.53344 9.91276 8.52873 8.83115 7.77801C8.32127 7.42418 7.70387 7.40752 7.17954 7.73353C6.65692 8.05848 6.39854 8.61814 6.48846 9.23069C6.6552 10.3667 7.04821 11.4631 7.63521 12.4469ZM4.74483 20.7697C6.98307 18.414 10.1249 17.0229 13.432 17.0229C14.278 17.0229 14.9682 16.3495 15.0012 15.5099C14.9109 15.1581 14.5668 14.9215 14.2041 14.9732C11.2206 15.406 8.36589 16.3368 5.71346 17.7382C5.27493 18.7042 4.94863 19.7219 4.74483 20.7697ZM4.57225 23.4156C4.8218 23.9473 5.35886 24.2991 5.96248 24.2991H10.7131C11.4511 24.2991 12.1909 24.5071 12.8266 24.8784C13.2941 23.948 14.0167 23.1644 14.927 22.616C15.6219 22.1975 15.9856 21.4136 15.8536 20.6192L15.3878 17.8166C14.8564 18.2578 14.1746 18.5232 13.4321 18.5232C9.84814 18.5232 6.48479 20.3892 4.57225 23.4156Z" fill="white"/>
</svg>
