<svg width="48" height="48" viewBox="0 0 48 48" fill="none" xmlns="http://www.w3.org/2000/svg">
<path d="M14.2982 23.9997C14.2982 24.3997 14.2648 24.7997 14.1982 25.1997C14.1315 25.5997 14.0315 25.983 13.8982 26.3497C13.7648 26.7497 13.7712 27.133 13.9172 27.4997C14.0632 27.8664 14.3215 28.1164 14.6922 28.2497C15.1295 28.4164 15.5398 28.3997 15.9232 28.1997C16.3065 27.9997 16.5648 27.6997 16.6982 27.2997C16.8648 26.7664 17.0065 26.2247 17.1232 25.6747C17.2398 25.1247 17.2982 24.5664 17.2982 23.9997C17.2982 23.4331 17.2565 22.8664 17.1732 22.2997C17.0898 21.733 16.9482 21.1831 16.7482 20.6497C16.5815 20.2497 16.2982 19.958 15.8982 19.7747C15.4982 19.5914 15.0982 19.5831 14.6982 19.7497C14.3315 19.8831 14.0815 20.1414 13.9482 20.5247C13.8148 20.9081 13.8148 21.2831 13.9482 21.6497C14.0815 22.0164 14.1732 22.3997 14.2232 22.7997C14.2732 23.1997 14.2982 23.5997 14.2982 23.9997ZM21.4482 23.9997C21.4482 24.8664 21.3898 25.7247 21.2732 26.5747C21.1565 27.4247 20.9648 28.2664 20.6982 29.0997C20.5648 29.4997 20.5648 29.8997 20.6982 30.2997C20.8315 30.6997 21.0982 30.9664 21.4982 31.0997C21.9315 31.2664 22.3398 31.2414 22.7232 31.0247C23.1065 30.808 23.3815 30.483 23.5482 30.0497C23.8815 29.083 24.1148 28.0914 24.2482 27.0747C24.3815 26.0581 24.4482 25.0331 24.4482 23.9997C24.4482 22.9664 24.3815 21.9497 24.2482 20.9497C24.1148 19.9497 23.8815 18.9664 23.5482 17.9997C23.3815 17.5664 23.1148 17.2414 22.7482 17.0247C22.3815 16.8081 21.9815 16.7831 21.5482 16.9497C21.1482 17.0831 20.8732 17.3497 20.7232 17.7497C20.5732 18.1497 20.5648 18.5497 20.6982 18.9497C20.9648 19.7497 21.1565 20.5747 21.2732 21.4247C21.3898 22.2747 21.4482 23.133 21.4482 23.9997ZM28.5982 23.9997C28.5982 25.333 28.4962 26.6497 28.2922 27.9497C28.0882 29.2497 27.7568 30.533 27.2982 31.7997C27.1315 32.1997 27.1232 32.5997 27.2732 32.9997C27.4232 33.3997 27.6982 33.683 28.0982 33.8497C28.4982 34.0164 28.8898 33.9997 29.2732 33.7997C29.6565 33.5997 29.9315 33.2997 30.0982 32.8997C30.6315 31.4664 31.0148 29.9997 31.2482 28.4997C31.4815 26.9997 31.5982 25.4997 31.5982 23.9997C31.5982 22.4997 31.4815 21.0081 31.2482 19.5247C31.0148 18.0414 30.6315 16.5831 30.0982 15.1497C29.9315 14.7497 29.6565 14.4497 29.2732 14.2497C28.8898 14.0497 28.4982 14.0331 28.0982 14.1997C27.6982 14.3664 27.4232 14.6497 27.2732 15.0497C27.1232 15.4497 27.1315 15.8497 27.2982 16.2497C27.7568 17.4831 28.0882 18.7497 28.2922 20.0497C28.4962 21.3497 28.5982 22.6664 28.5982 23.9997ZM24.0017 44.2987C21.2197 44.2987 18.594 43.7674 16.1247 42.7047C13.6557 41.642 11.4992 40.1887 9.65517 38.3447C7.81117 36.5007 6.35784 34.3447 5.29517 31.8767C4.23251 29.4087 3.70117 26.7836 3.70117 24.0012C3.70117 21.1859 4.23251 18.5436 5.29517 16.0742C6.35784 13.6052 7.81051 11.4569 9.65317 9.62922C11.4958 7.80122 13.6515 6.35422 16.1202 5.28822C18.5888 4.22189 21.2147 3.68872 23.9977 3.68872C26.8137 3.68872 29.4568 4.22155 31.9272 5.28722C34.3972 6.35289 36.5457 7.79905 38.3727 9.62572C40.2 11.4524 41.6465 13.6004 42.7122 16.0697C43.7782 18.5391 44.3112 21.1824 44.3112 23.9997C44.3112 26.783 43.778 29.4092 42.7117 31.8782C41.6457 34.3472 40.1987 36.5032 38.3707 38.3462C36.543 40.1892 34.3952 41.642 31.9272 42.7047C29.4592 43.7674 26.8173 44.2987 24.0017 44.2987ZM24.0002 40.8922C28.7015 40.8922 32.6923 39.2464 35.9727 35.9547C39.2527 32.6627 40.8927 28.6777 40.8927 23.9997C40.8927 19.2984 39.2527 15.3076 35.9727 12.0272C32.6923 8.74722 28.6995 7.10722 23.9942 7.10722C19.3222 7.10722 15.3397 8.74722 12.0467 12.0272C8.75401 15.3076 7.10767 19.3004 7.10767 24.0057C7.10767 28.6777 8.75351 32.6602 12.0452 35.9532C15.3372 39.2459 19.3222 40.8922 24.0002 40.8922Z" fill="#05030D"/>
</svg>
