<svg width="46" height="46" viewBox="0 0 46 46" fill="none" xmlns="http://www.w3.org/2000/svg">
<path d="M19.1663 40.2502V28.7502H17.2497C16.7066 28.7502 16.2517 28.5662 15.885 28.1982C15.5183 27.8302 15.3343 27.3753 15.333 26.8335V17.2502C15.333 16.196 15.7087 15.2939 16.46 14.5438C17.2113 13.7938 18.1135 13.4181 19.1663 13.4168H26.833C27.8872 13.4168 28.7899 13.7925 29.5413 14.5438C30.2926 15.2952 30.6676 16.1973 30.6663 17.2502V26.8335C30.6663 27.3766 30.4823 27.8321 30.1143 28.2001C29.7463 28.5681 29.2915 28.7515 28.7497 28.7502H26.833V40.2502C26.833 40.7932 26.649 41.2488 26.281 41.6168C25.913 41.9848 25.4581 42.1681 24.9163 42.1668H21.083C20.54 42.1668 20.0851 41.9828 19.7183 41.6148C19.3516 41.2468 19.1676 40.792 19.1663 40.2502ZM22.9997 11.5002C21.9455 11.5002 21.0434 11.1251 20.2933 10.3751C19.5433 9.62504 19.1676 8.72229 19.1663 7.66684C19.1651 6.6114 19.5407 5.70929 20.2933 4.96051C21.046 4.21173 21.9481 3.83606 22.9997 3.83351C24.0513 3.83095 24.954 4.20662 25.7079 4.96051C26.4618 5.7144 26.8368 6.61651 26.833 7.66684C26.8292 8.71718 26.4541 9.61993 25.7079 10.3751C24.9617 11.1303 24.059 11.5053 22.9997 11.5002Z" fill="#FF6138"/>
</svg>
