<svg width="36" height="36" viewBox="0 0 36 36" fill="none" xmlns="http://www.w3.org/2000/svg">
<path d="M6.5 33C5.39543 33 4.5 32.1046 4.5 31V14C4.5 12.8954 5.39543 12 6.5 12H8.5C9.60457 12 10.5 12.8954 10.5 14V31C10.5 32.1046 9.60457 33 8.5 33H6.5ZM17 33C15.8954 33 15 32.1046 15 31V5C15 3.89543 15.8954 3 17 3H19C20.1046 3 21 3.89543 21 5V31C21 32.1046 20.1046 33 19 33H17ZM27.5 33C26.3954 33 25.5 32.1046 25.5 31V23C25.5 21.8954 26.3954 21 27.5 21H29.5C30.6046 21 31.5 21.8954 31.5 23V31C31.5 32.1046 30.6046 33 29.5 33H27.5Z" fill="#6138FF"/>
</svg>
