<svg width="48" height="48" viewBox="0 0 48 48" fill="none" xmlns="http://www.w3.org/2000/svg">
<rect width="48" height="48" rx="24" fill="#9E66FF"/>
<path d="M21.3337 36.0001V28.0001H20.0003C19.6225 28.0001 19.3061 27.8721 19.051 27.6161C18.7959 27.3601 18.6679 27.0436 18.667 26.6668V20.0001C18.667 19.2668 18.9283 18.6392 19.451 18.1174C19.9737 17.5956 20.6012 17.3343 21.3337 17.3334H26.667C27.4003 17.3334 28.0283 17.5948 28.551 18.1174C29.0737 18.6401 29.3345 19.2676 29.3337 20.0001V26.6668C29.3337 27.0445 29.2057 27.3614 28.9497 27.6174C28.6937 27.8734 28.3772 28.001 28.0003 28.0001H26.667V36.0001C26.667 36.3779 26.539 36.6948 26.283 36.9508C26.027 37.2068 25.7105 37.3343 25.3337 37.3334H22.667C22.2892 37.3334 21.9728 37.2054 21.7177 36.9494C21.4625 36.6934 21.3345 36.377 21.3337 36.0001ZM24.0003 16.0001C23.267 16.0001 22.6394 15.7392 22.1177 15.2174C21.5959 14.6956 21.3345 14.0676 21.3337 13.3334C21.3328 12.5992 21.5941 11.9716 22.1177 11.4508C22.6412 10.9299 23.2688 10.6685 24.0003 10.6668C24.7319 10.665 25.3599 10.9263 25.8843 11.4508C26.4088 11.9752 26.6697 12.6028 26.667 13.3334C26.6643 14.0641 26.4034 14.6921 25.8843 15.2174C25.3652 15.7428 24.7372 16.0036 24.0003 16.0001Z" fill="white"/>
</svg>
