<svg width="74" height="74" viewBox="0 0 74 74" fill="none" xmlns="http://www.w3.org/2000/svg">
<rect x="0.8" y="0.8" width="72.4" height="72.4" rx="18.2" stroke="black" stroke-opacity="0.06" stroke-width="1.6"/>
<g clip-path="url(#clip0_304_1493)">
<path fill-rule="evenodd" clip-rule="evenodd" d="M30.6 21C29.1855 21 27.829 21.5619 26.8288 22.5621C25.8286 23.5623 25.2667 24.9188 25.2667 26.3333V26.9435C25.2667 27.8992 25.5504 28.7888 26.0389 29.5333H24.2C23.3513 29.5333 22.5374 29.8705 21.9373 30.4706C21.3371 31.0707 21 31.8846 21 32.7333V34.8667C21 35.7154 21.3371 36.5293 21.9373 37.1294C22.5374 37.7295 23.3513 38.0667 24.2 38.0667H35.9333V29.5333H38.0667V38.0667H49.8C50.6487 38.0667 51.4626 37.7295 52.0627 37.1294C52.6629 36.5293 53 35.7154 53 34.8667V32.7333C53 31.8846 52.6629 31.0707 52.0627 30.4706C51.4626 29.8705 50.6487 29.5333 49.8 29.5333H47.9611C48.4496 28.7888 48.7333 27.8992 48.7333 26.9435V26.3333C48.7333 24.9188 48.1714 23.5623 47.1712 22.5621C46.171 21.5619 44.8145 21 43.4 21C40.6843 21 38.3056 22.4507 37 24.6181C36.336 23.5142 35.3976 22.6008 34.2762 21.9668C33.1547 21.3328 31.8883 20.9997 30.6 21ZM38.0667 29.5333H44.0101C45.4395 29.5333 46.6 28.3728 46.6 26.9435V26.3333C46.6 25.4846 46.2629 24.6707 45.6627 24.0706C45.0626 23.4705 44.2487 23.1333 43.4 23.1333C41.9855 23.1333 40.629 23.6952 39.6288 24.6954C38.6286 25.6956 38.0667 27.0522 38.0667 28.4667V29.5333ZM35.9333 29.5333H29.9899C28.5605 29.5333 27.4 28.3728 27.4 26.9435V26.3333C27.4 25.4846 27.7371 24.6707 28.3373 24.0706C28.9374 23.4705 29.7513 23.1333 30.6 23.1333C31.3004 23.1333 31.9939 23.2713 32.641 23.5393C33.288 23.8073 33.876 24.2002 34.3712 24.6954C34.8665 25.1907 35.2593 25.7786 35.5274 26.4257C35.7954 27.0728 35.9333 27.7663 35.9333 28.4667V29.5333Z" fill="#6138FF"/>
<path d="M35.9333 40.2H23.1333V47.6667C23.1333 49.0812 23.6952 50.4377 24.6954 51.4379C25.6956 52.4381 27.0521 53 28.4666 53H35.9333V40.2ZM38.0666 53H45.5333C46.9478 53 48.3043 52.4381 49.3045 51.4379C50.3047 50.4377 50.8666 49.0812 50.8666 47.6667V40.2H38.0666V53Z" fill="#6138FF"/>
</g>
<defs>
<clipPath id="clip0_304_1493">
<rect width="32" height="32" fill="white" transform="translate(21 21)"/>
</clipPath>
</defs>
</svg>
