<svg width="48" height="48" viewBox="0 0 48 48" fill="none" xmlns="http://www.w3.org/2000/svg">
<rect width="48" height="48" rx="24" fill="#FF8C66"/>
<path d="M23.4005 30.1605L30.7965 22.7645C29.5523 22.2447 28.4223 21.4857 27.4705 20.5305C26.5148 19.5785 25.7555 18.4481 25.2355 17.2035L17.8395 24.5995C17.2625 25.1765 16.9735 25.4655 16.7255 25.7835C16.4329 26.159 16.1818 26.565 15.9765 26.9945C15.8035 27.3585 15.6745 27.7465 15.4165 28.5205L14.0545 32.6035C13.9918 32.7904 13.9825 32.9911 14.0277 33.1831C14.0728 33.375 14.1706 33.5506 14.31 33.69C14.4494 33.8294 14.625 33.9272 14.8169 33.9723C15.0088 34.0175 15.2096 34.0082 15.3965 33.9455L19.4795 32.5835C20.2545 32.3255 20.6415 32.1965 21.0055 32.0235C21.4368 31.8181 21.8405 31.5685 22.2165 31.2745C22.5345 31.0265 22.8235 30.7375 23.4005 30.1605ZM32.8485 20.7125C33.5859 19.975 34.0002 18.9749 34.0002 17.932C34.0002 16.8891 33.5859 15.8889 32.8485 15.1515C32.1111 14.414 31.1109 13.9998 30.068 13.9998C29.0251 13.9998 28.0249 14.414 27.2875 15.1515L26.4005 16.0385L26.4385 16.1495C26.8755 17.4003 27.5908 18.5355 28.5305 19.4695C29.4924 20.4373 30.6674 21.1667 31.9615 21.5995L32.8485 20.7125Z" fill="white"/>
</svg>
