<svg width="74" height="74" viewBox="0 0 74 74" fill="none" xmlns="http://www.w3.org/2000/svg">
<rect x="0.8" y="0.8" width="72.4" height="72.4" rx="18.2" stroke="black" stroke-opacity="0.06" stroke-width="1.6"/>
<path d="M33.1668 54.25V42.75H31.2502C30.7071 42.75 30.2522 42.566 29.8855 42.198C29.5188 41.83 29.3348 41.3751 29.3335 40.8333V31.25C29.3335 30.1958 29.7092 29.2937 30.4605 28.5437C31.2118 27.7936 32.1139 27.4179 33.1668 27.4167H40.8335C41.8877 27.4167 42.7904 27.7923 43.5417 28.5437C44.2931 29.295 44.6681 30.1971 44.6668 31.25V40.8333C44.6668 41.3764 44.4828 41.8319 44.1148 42.1999C43.7468 42.5679 43.2919 42.7513 42.7502 42.75H40.8335V54.25C40.8335 54.793 40.6495 55.2486 40.2815 55.6166C39.9135 55.9846 39.4586 56.1679 38.9168 56.1667H35.0835C34.5404 56.1667 34.0856 55.9827 33.7188 55.6147C33.3521 55.2467 33.1681 54.7918 33.1668 54.25ZM37.0002 25.5C35.946 25.5 35.0439 25.125 34.2938 24.3749C33.5438 23.6249 33.1681 22.7221 33.1668 21.6667C33.1656 20.6112 33.5412 19.7091 34.2938 18.9603C35.0464 18.2115 35.9486 17.8359 37.0002 17.8333C38.0518 17.8308 38.9545 18.2064 39.7084 18.9603C40.4623 19.7142 40.8373 20.6163 40.8335 21.6667C40.8297 22.717 40.4546 23.6197 39.7084 24.3749C38.9622 25.1301 38.0594 25.5051 37.0002 25.5Z" fill="#6138FF"/>
</svg>
