<svg width="74" height="74" viewBox="0 0 74 74" fill="none" xmlns="http://www.w3.org/2000/svg">
<rect x="0.8" y="0.8" width="72.4" height="72.4" rx="18.2" stroke="black" stroke-opacity="0.06" stroke-width="1.6"/>
<path fill-rule="evenodd" clip-rule="evenodd" d="M37.0003 57C44.3641 57 50.3337 51.0304 50.3337 43.6666C50.3337 36.3029 44.3641 30.3333 37.0003 30.3333C29.6365 30.3333 23.667 36.3029 23.667 43.6666C23.667 51.0304 29.6365 57 37.0003 57ZM37.0003 52C41.6027 52 45.3337 48.269 45.3337 43.6666C45.3337 39.0643 41.6027 35.3333 37.0003 35.3333C32.398 35.3333 28.667 39.0643 28.667 43.6666C28.667 48.269 32.398 52 37.0003 52Z" fill="#6138FF"/>
<path d="M42 43.6667C42 46.4281 39.7614 48.6667 37 48.6667C34.2386 48.6667 32 46.4281 32 43.6667C32 40.9053 34.2386 38.6667 37 38.6667C39.7614 38.6667 42 40.9053 42 43.6667Z" fill="#6138FF"/>
<path d="M44.6396 28.85C45.0586 29.0665 45.5811 28.9213 45.8047 28.506L50.6773 19.4568C51.2752 18.3464 50.471 17 49.2099 17H42.9896C42.3797 17 41.8185 17.3331 41.5265 17.8686L39.1164 22.2871C38.9807 22.5358 38.9807 22.8364 39.1164 23.0851L41.436 27.3377C41.5427 27.5334 41.7238 27.6773 41.9368 27.7432C42.876 28.0341 43.7796 28.4057 44.6396 28.85Z" fill="#6138FF"/>
<path d="M29.3606 28.8504C28.9414 29.0665 28.4189 28.9213 28.1953 28.506L23.3226 19.4568C22.7247 18.3464 23.529 17 24.7901 17H31.0103C31.6202 17 32.1814 17.3331 32.4735 17.8686L36.7643 25.7351C37.072 26.2991 36.6517 26.9916 36.0104 27.0301C33.6973 27.1689 31.4221 27.7879 29.3606 28.8504Z" fill="#6138FF"/>
</svg>
