<svg width="46" height="46" viewBox="0 0 46 46" fill="none" xmlns="http://www.w3.org/2000/svg">
<path d="M12.698 38.6053C12.1818 38.8123 11.6994 38.7612 11.2509 38.4519C10.8024 38.1427 10.5788 37.714 10.5801 37.1658V29.6314C10.5801 29.1152 10.7008 28.6245 10.9423 28.1594C11.1838 27.6956 11.5269 27.325 11.9716 27.0478L14.2639 25.547C14.4875 27.7652 14.7757 29.694 15.1283 31.3334C15.481 32.9728 16.0618 34.8428 16.8706 36.9435L12.698 38.6053ZM19.5213 36.0484C19.1469 36.0484 18.8371 35.9232 18.5918 35.6728C18.3464 35.4223 18.156 35.1259 18.0206 34.7834C17.3306 32.8259 16.808 31.0165 16.4527 29.3554C16.1001 27.6956 15.9237 25.8237 15.9237 23.7396C15.9237 20.6295 16.4029 17.7609 17.3612 15.1338C18.3196 12.5067 19.8274 10.1242 21.8846 7.98651C22.0251 7.8204 22.1951 7.70349 22.3944 7.63576C22.5925 7.56804 22.7944 7.53418 23.0001 7.53418C23.2058 7.53418 23.4077 7.56804 23.6058 7.63576C23.8038 7.70349 23.9744 7.8204 24.1175 7.98651C26.1747 10.123 27.6825 12.5047 28.6408 15.1318C29.5992 17.759 30.0783 20.6288 30.0783 23.7415C30.0783 25.8562 29.9071 27.7295 29.5647 29.3612C29.2222 30.9929 28.6939 32.8003 27.9796 34.7834C27.8441 35.1259 27.6537 35.4223 27.4084 35.6728C27.1631 35.9232 26.8539 36.0484 26.4807 36.0484H19.5213ZM23.0001 23.9581C23.8089 23.9581 24.49 23.6808 25.0433 23.1263C25.5978 22.573 25.8751 21.8919 25.8751 21.0831C25.8751 20.2743 25.5978 19.5932 25.0433 19.0399C24.4887 18.4867 23.8076 18.2094 23.0001 18.2081C22.1925 18.2068 21.5115 18.4841 20.9569 19.0399C20.4024 19.5932 20.1251 20.2743 20.1251 21.0831C20.1251 21.8919 20.4024 22.573 20.9569 23.1263C21.5115 23.6795 22.1925 23.9568 23.0001 23.9581ZM33.2658 38.6436L29.0932 36.9799C29.902 34.8793 30.4827 33.0035 30.8354 31.3526C31.1881 29.7017 31.4756 27.7659 31.6979 25.5451L33.9922 27.0842C34.4368 27.3615 34.7799 27.732 35.0214 28.1958C35.2642 28.661 35.3856 29.1516 35.3856 29.6678V37.2003C35.3856 37.7498 35.1613 38.1791 34.7128 38.4883C34.2643 38.7976 33.782 38.8487 33.2658 38.6417" fill="#FF6138"/>
</svg>
