<svg width="42" height="42" viewBox="0 0 42 42" fill="none" xmlns="http://www.w3.org/2000/svg">
<path d="M11.5939 35.2484C11.1226 35.4374 10.6822 35.3907 10.2727 35.1084C9.86316 34.8261 9.65899 34.4347 9.66016 33.9342V27.0549C9.66016 26.5836 9.77041 26.1356 9.99091 25.7109C10.2114 25.2874 10.5247 24.9491 10.9307 24.6959L13.0237 23.3257C13.2278 25.351 13.4909 27.1121 13.8129 28.6089C14.1349 30.1057 14.6652 31.8132 15.4037 33.7312L11.5939 35.2484ZM17.8239 32.9139C17.4821 32.9139 17.1992 32.7996 16.9752 32.5709C16.7512 32.3422 16.5773 32.0716 16.4537 31.7589C15.8237 29.9716 15.3465 28.3196 15.0222 26.8029C14.7002 25.2874 14.5392 23.5782 14.5392 21.6754C14.5392 18.8357 14.9767 16.2166 15.8517 13.8179C16.7267 11.4192 18.1033 9.24398 19.9817 7.29215C20.11 7.14048 20.2652 7.03373 20.4472 6.9719C20.628 6.91007 20.8123 6.87915 21.0002 6.87915C21.188 6.87915 21.3723 6.91007 21.5532 6.9719C21.734 7.03373 21.8897 7.14048 22.0204 7.29215C23.8987 9.24282 25.2754 11.4175 26.1504 13.8162C27.0254 16.2148 27.4629 18.8352 27.4629 21.6772C27.4629 23.608 27.3066 25.3183 26.9939 26.8082C26.6812 28.298 26.1988 29.9482 25.5467 31.7589C25.423 32.0716 25.2492 32.3422 25.0252 32.5709C24.8012 32.7996 24.5188 32.9139 24.1782 32.9139H17.8239ZM21.0002 21.8749C21.7387 21.8749 22.3605 21.6217 22.8657 21.1154C23.372 20.6102 23.6252 19.9884 23.6252 19.2499C23.6252 18.5114 23.372 17.8896 22.8657 17.3844C22.3593 16.8792 21.7375 16.6261 21.0002 16.6249C20.2628 16.6237 19.641 16.8769 19.1347 17.3844C18.6283 17.8896 18.3752 18.5114 18.3752 19.2499C18.3752 19.9884 18.6283 20.6102 19.1347 21.1154C19.641 21.6206 20.2628 21.8737 21.0002 21.8749ZM30.3732 35.2834L26.5634 33.7644C27.3019 31.8464 27.8322 30.1337 28.1542 28.6264C28.4762 27.1191 28.7387 25.3516 28.9417 23.3239L31.0364 24.7292C31.4424 24.9823 31.7557 25.3207 31.9762 25.7442C32.1978 26.1688 32.3087 26.6168 32.3087 27.0882V33.9657C32.3087 34.4673 32.1039 34.8593 31.6944 35.1417C31.2849 35.424 30.8445 35.4707 30.3732 35.2817" fill="#6138FF"/>
</svg>
