<svg width="48" height="48" viewBox="0 0 48 48" fill="none" xmlns="http://www.w3.org/2000/svg">
<path d="M21.8112 34.1183L30.3372 28.5388C30.8675 28.2068 31.1327 27.7363 31.1327 27.1273C31.1327 26.5183 30.8675 26.0439 30.3372 25.7043L21.8612 20.0628C21.2972 19.6898 20.7127 19.6618 20.1077 19.9788C19.5027 20.2958 19.2002 20.8003 19.2002 21.4923V32.6888C19.2002 33.3848 19.4943 33.8923 20.0827 34.2113C20.671 34.5303 21.2472 34.4993 21.8112 34.1183ZM7.10767 42.2988C6.18767 42.2988 5.39001 41.9609 4.71467 41.2853C4.03901 40.6099 3.70117 39.8123 3.70117 38.8923V13.5478C3.70117 13.0678 3.86484 12.6619 4.19217 12.3303C4.51951 11.9983 4.92367 11.8323 5.40467 11.8323H15.7252V6.83228C15.7252 5.92061 16.063 5.12495 16.7387 4.44528C17.414 3.76561 18.2117 3.42578 19.1317 3.42578H28.8687C29.7887 3.42578 30.5863 3.76561 31.2617 4.44528C31.9373 5.12495 32.2752 5.92061 32.2752 6.83228V11.8323H42.5957C43.0757 11.8323 43.4815 11.9983 43.8132 12.3303C44.1452 12.6619 44.3112 13.0678 44.3112 13.5478V38.8923C44.3112 39.8123 43.9722 40.6099 43.2942 41.2853C42.6165 41.9609 41.816 42.2988 40.8927 42.2988H7.10767ZM7.10767 38.8923H40.8927V15.2508H7.10767V38.8923ZM19.1317 11.8323H28.8687V6.83228H19.1317V11.8323Z" fill="#05030D"/>
</svg>
