<svg width="136" height="24" viewBox="0 0 136 24" fill="none" xmlns="http://www.w3.org/2000/svg">
<path fill-rule="evenodd" clip-rule="evenodd" d="M36.5693 0.749878L25.0598 23.2499H14.249L19.0658 13.9249H18.8496C14.8759 19.0834 8.9469 22.4793 0.499023 23.2499V14.054C0.499023 14.054 5.90334 13.7348 9.08037 10.3946H0.499023V0.750055H10.1435V8.68253L10.36 8.68164L14.3011 0.750055H21.595V8.63223L21.8114 8.63188L25.9004 0.749878H36.5693Z" fill="#05030D"/>
<path d="M99.332 20.7664H102.438V2.93738H99.332V20.7664Z" fill="#05030D"/>
<path fill-rule="evenodd" clip-rule="evenodd" d="M82.2082 20.5843C82.8832 20.8649 83.5697 21.0053 84.2676 21.0053C85.4205 21.0053 86.4521 20.7247 87.3623 20.1633C88.2725 19.6021 88.978 18.8284 89.4786 17.8423C89.9792 16.8487 90.2295 15.7222 90.2295 14.4631C90.2295 13.2039 89.9716 12.0776 89.4558 11.0839C88.94 10.0903 88.2232 9.32037 87.3053 8.77423C86.3876 8.22052 85.3446 7.94746 84.1765 7.95503C83.4332 7.95503 82.7202 8.09916 82.0375 8.3874C81.3548 8.67563 80.786 9.08523 80.3308 9.6162C80.2957 9.65662 80.2616 9.69745 80.2285 9.73868V2.94882H77.111V20.7664H80.2057L80.1995 19.1019C80.2795 19.2001 80.3651 19.2959 80.456 19.3897C80.949 19.8979 81.5331 20.2961 82.2082 20.5843ZM85.394 17.7058C84.8857 18.0168 84.3055 18.1723 83.6531 18.1723C83.0083 18.1723 82.4167 18.0129 81.8782 17.6944C81.3396 17.3682 80.9111 16.9246 80.5925 16.3632C80.2815 15.8019 80.126 15.1647 80.126 14.4517C80.1185 13.7387 80.2701 13.1016 80.5811 12.5403C80.8997 11.9714 81.3282 11.5314 81.8668 11.2205C82.4053 10.9019 83.0008 10.7464 83.6531 10.754C84.3055 10.7464 84.8857 10.8981 85.394 11.2091C85.9097 11.5125 86.3041 11.9486 86.5772 12.5175C86.8578 13.0788 86.9982 13.7236 86.9982 14.4517C86.9982 15.1799 86.8578 15.8247 86.5772 16.3859C86.3041 16.9473 85.9097 17.3872 85.394 17.7058Z" fill="#05030D"/>
<path d="M41.0691 4.01831H44.619L47.7945 15.6153L51.1726 4.01831H54.1308L57.7945 15.3825L60.8437 4.01831H64.0977L59.2963 20.7664H56.2357L52.5102 9.66441L49.0905 20.7664H45.9957L41.0691 4.01831Z" fill="#05030D"/>
<path fill-rule="evenodd" clip-rule="evenodd" d="M69.3403 21.0621C68.1038 21.0698 66.9888 20.7966 65.9952 20.243C65.0091 19.6816 64.2317 18.9041 63.6627 17.9105C63.1014 16.9169 62.8208 15.7829 62.8208 14.5085C62.8208 13.2721 63.1091 12.1534 63.6856 11.1521C64.2619 10.1509 65.0432 9.36962 66.0293 8.80832C67.0154 8.24702 68.1152 7.96637 69.3288 7.96637C70.6942 7.96637 71.8888 8.26977 72.9128 8.87658C73.9444 9.48339 74.7143 10.3443 75.2225 11.4593C75.7383 12.5668 75.9242 13.8373 75.7801 15.2709H66.0342C66.0614 15.842 66.2039 16.3616 66.4617 16.8296C66.7499 17.3454 67.1519 17.7474 67.6677 18.0356C68.1835 18.3239 68.7599 18.468 69.3972 18.468C69.8826 18.4604 70.3339 18.377 70.7511 18.2178C71.1683 18.0509 71.5209 17.8271 71.8092 17.5464C72.105 17.2658 72.3137 16.9473 72.4351 16.5908H75.6891C75.4918 17.463 75.0974 18.2405 74.5058 18.9231C73.914 19.5983 73.1708 20.1254 72.2757 20.5046C71.3807 20.8839 70.4022 21.0698 69.3403 21.0621ZM66.4731 12.142C66.2913 12.459 66.1653 12.8003 66.0952 13.166H72.5555C72.5087 12.704 72.3661 12.283 72.1278 11.9031C71.8547 11.4555 71.4831 11.1104 71.0128 10.8677C70.5425 10.6174 70.0116 10.4922 69.4199 10.4922C68.7903 10.4922 68.2177 10.6363 67.7018 10.9246C67.1861 11.2128 66.7764 11.6186 66.4731 12.142Z" fill="#05030D"/>
<path d="M92.5168 8.22808C92.5168 7.21167 92.748 6.30903 93.2108 5.52017C93.6734 4.72373 94.322 4.10553 95.1564 3.6656C95.9983 3.21807 96.9807 2.98672 98.1032 2.97156V5.73635C97.5798 5.74393 97.1323 5.85392 96.7607 6.06631C96.3965 6.27111 96.1159 6.57072 95.9187 6.96515C95.7372 7.32827 95.6392 7.74925 95.6248 8.22808H98.0349V10.8563H95.6229V20.7664H92.5168V10.8563H90.5143V8.22808H92.5168Z" fill="#05030D"/>
<path fill-rule="evenodd" clip-rule="evenodd" d="M110.334 21.0393C109.067 21.0393 107.933 20.7625 106.932 20.2088C105.938 19.6475 105.157 18.8738 104.588 17.8877C104.027 16.8941 103.746 15.7677 103.746 14.5085C103.746 13.2418 104.027 12.1116 104.588 11.118C105.157 10.1167 105.938 9.33923 106.932 8.78551C107.933 8.23179 109.067 7.95493 110.334 7.95493C111.608 7.95493 112.746 8.23179 113.747 8.78551C114.756 9.33923 115.541 10.1129 116.102 11.1066C116.664 12.1002 116.948 13.2342 116.956 14.5085C116.948 15.7677 116.664 16.8941 116.102 17.8877C115.549 18.8738 114.767 19.6475 113.758 20.2088C112.75 20.7625 111.608 21.0393 110.334 21.0393ZM110.334 18.1836C111.001 18.1836 111.593 18.0318 112.109 17.7285C112.625 17.4175 113.023 16.9851 113.303 16.4313C113.584 15.8701 113.724 15.2291 113.724 14.5085C113.724 13.7803 113.584 13.1356 113.303 12.5743C113.023 12.013 112.625 11.5807 112.109 11.2772C111.593 10.9663 111.001 10.8108 110.334 10.8108C109.674 10.8108 109.086 10.9663 108.57 11.2772C108.062 11.5807 107.668 12.013 107.387 12.5743C107.106 13.1356 106.97 13.7803 106.977 14.5085C106.977 15.2291 107.118 15.8701 107.398 16.4313C107.687 16.9851 108.081 17.4175 108.582 17.7285C109.09 18.0318 109.674 18.1836 110.334 18.1836Z" fill="#05030D"/>
<path d="M120.312 8.22806H116.853L120.597 20.7664H123.623L126.085 12.7581L128.743 20.7664H131.724L135.479 8.22806H132.35L130.22 16.0324L127.866 8.22806H124.841L122.498 16.2043L120.312 8.22806Z" fill="#05030D"/>
</svg>
